<?xml version="1.0" encoding="UTF-8"?>
<svg id="Layer_1" xmlns="http://www.w3.org/2000/svg" version="1.1" viewBox="900 900 1200 1200" width="300" height="120">
  <!-- Generator: Adobe Illustrator 29.1.0, SVG Export Plug-In . SVG Version: 2.1.0 Build 142)  -->
  <defs>
    <style>
      .st0 {
        fill: #adb9ca;
      }
    </style>
  </defs>
  <g>
    <path d="M803.3,1600.51h24.65v236.33h-20.59l-151.93-191.77v191.77h-24.98v-236.33h20.59l152.26,191.77v-191.77ZM960.62,1622.12h83.05v214.72h24.98v-214.72h83.05v-21.61h-191.09v21.61ZM1309.38,1727.46h122.22v-21.27h-122.22v-84.07h137.07v-21.61h-162.06v236.33h167.12v-21.61h-142.14v-87.78ZM1734.09,1755.82l57.73,81.03h-27.35l-54.02-75.96c-6.08.68-12.15,1.01-18.91,1.01h-63.47v74.95h-24.98v-236.33h88.46c60.1,0,96.56,30.39,96.56,81.03,0,37.14-19.58,63.13-54.02,74.28ZM1763.13,1681.54c0-37.81-24.98-59.42-72.25-59.42h-62.8v118.5h62.8c47.27,0,72.25-21.95,72.25-59.08ZM1940.03,1836.84h24.98v-236.33h-24.98v236.33ZM2359.68,1600.51l-101.62,175.22-102.63-175.22h-20.59v236.33h23.97v-188.05l92.84,158h11.82l92.84-159.02v189.06h23.97v-236.33h-20.59Z"/>
    <path d="M760.77,1154.07h45.29v139.77c0,72.18-40.69,111.46-108.27,111.46s-108.63-39.28-108.63-111.46v-139.77h46v138c0,50.95,23,72.89,62.98,72.89s62.63-21.94,62.63-72.89v-138ZM961.74,1401.75h46v-247.69h-46v247.69ZM1134.05,1192.99h82.09v208.76h46v-208.76h82.09v-38.92h-210.18v38.92ZM1703.01,1154.07l-96.6,164.18-98.37-164.18h-37.86v247.69h43.88v-162.06l81.38,133.75h20.52l81.38-135.87.35,164.18h43.52l-.35-247.69h-37.86ZM2021.1,1154.07l111.81,247.69h-48.12l-24.77-57.32h-123.84l-24.42,57.32h-47.41l111.46-247.69h45.29ZM2044.81,1308.34l-46.71-108.27-46.35,108.27h93.06ZM2430.13,1321.79l-136.58-167.72h-37.86v247.69h45.64v-167.72l136.58,167.72h37.86v-247.69h-45.64v167.72ZM2808.02,1154.07v167.72l-136.58-167.72h-37.86v247.69h45.64v-167.72l136.58,167.72h37.86v-247.69h-45.64Z"/>
    <rect class="st0" x="146.34" y="1109.25" width="377.25" height="781.5"/>
    <rect x="325.72" y="1587.16" width="57.32" height="247.69"/>
    <path d="M408.71,1272.96c20.17-10.62,32.91-29.72,32.91-54.49,0-38.57-31.85-64.4-93.77-64.4h-121.01v247.69h128.09c65.11,0,99.07-24.77,99.07-67.58,0-31.14-17.69-52.37-45.29-61.21ZM283.81,1197.24h56.97c27.95,0,43.17,9.55,43.17,29.01s-15.21,29.37-43.17,29.37h-56.97v-58.38ZM350.68,1358.59h-66.88v-61.21h66.88c29.72,0,45.65,9.91,45.65,30.78s-15.92,30.43-45.65,30.43Z"/>
  </g>
</svg>